<?xml version="1.0" standalone="no"?>
<!DOCTYPE svg PUBLIC "-//W3C//DTD SVG 20010904//EN"
 "http://www.w3.org/TR/2001/REC-SVG-20010904/DTD/svg10.dtd">
<svg version="1.0" xmlns="http://www.w3.org/2000/svg"
 width="260.000000pt" height="260.000000pt" viewBox="0 0 260.000000 260.000000"
 preserveAspectRatio="xMidYMid meet">
<metadata>
Created by potrace 1.14, written by Peter Selinger 2001-2017
</metadata>
<g transform="translate(0.000000,260.000000) scale(0.100000,-0.100000)"
fill="#000000" stroke="none">
<path d="M0 1300 l0 -1300 1300 0 1300 0 0 1300 0 1300 -1300 0 -1300 0 0
-1300z m1526 819 l80 -12 -37 -171 c-21 -94 -38 -174 -39 -178 0 -5 13 -8 28
-8 50 0 181 -38 242 -71 74 -39 153 -122 186 -194 52 -112 39 -279 -31 -421
-95 -194 -298 -318 -541 -331 l-101 -6 -12 -51 c-6 -28 -16 -75 -22 -103 l-11
-53 -139 0 c-76 0 -139 3 -139 8 0 4 9 47 20 96 11 50 20 94 20 98 0 4 -17 8
-37 8 -60 0 -173 28 -229 55 -65 32 -138 109 -171 182 -59 128 -53 310 13 443
85 169 317 301 592 336 42 5 53 11 57 28 21 88 55 259 55 272 0 13 -9 14 -57
9 -88 -10 -179 -33 -222 -54 -77 -40 -113 -111 -93 -185 l10 -36 -46 0 c-63 0
-113 26 -135 72 -54 109 55 213 272 258 102 22 360 26 487 9z"/>
<path d="M1129 1636 c-204 -71 -302 -225 -303 -476 -1 -135 15 -194 70 -259
58 -67 146 -103 158 -63 3 9 41 188 86 397 44 209 82 390 85 403 7 28 -9 28
-96 -2z"/>
<path d="M1496 1588 c-9 -40 -49 -228 -90 -418 l-73 -345 35 -3 c81 -8 196 56
265 147 90 117 132 252 124 396 -5 110 -30 168 -94 224 -37 33 -115 71 -144
71 -4 0 -15 -33 -23 -72z"/>
</g>
</svg>
